<svg version="1.1" id="Layer_1" xmlns="http://www.w3.org/2000/svg" xmlns:xlink="http://www.w3.org/1999/xlink" x="0px" y="0px"
	 width="100%" viewBox="0 0 642 144" enable-background="new 0 0 642 144" xml:space="preserve">
<path fill="#000000" opacity="1.000000" stroke="none" 
	d="
M643.000000,49.000000 
	C643.000000,80.976997 643.000000,112.954002 643.000000,145.000000 
	C472.312439,145.000000 301.624878,145.000000 130.515625,144.658539 
	C130.667404,143.750381 131.147308,143.009979 131.828415,142.643204 
	C141.323105,137.530197 145.158966,129.556396 145.079666,118.865692 
	C144.848526,87.702225 145.006622,56.535934 144.992157,25.370760 
	C144.987717,15.793771 141.328857,8.317076 132.553146,3.721860 
	C131.512390,3.176888 130.842041,1.924480 130.000000,1.000000 
	C301.000000,1.000000 472.000000,1.000000 643.000000,1.000000 
	C643.000000,15.084723 643.000000,29.073704 642.635803,43.495411 
	C640.286499,43.418224 637.796326,41.907082 636.418945,42.601898 
	C633.328430,44.160961 630.733643,43.883419 627.524536,43.227680 
	C618.207092,41.323776 611.917175,45.749256 613.226562,53.373474 
	C613.721191,56.253071 616.588745,58.725121 618.449890,61.495052 
	C614.051453,65.380653 614.028870,67.595398 618.991455,72.008400 
	C619.000061,71.999779 619.017944,71.982971 618.625977,71.988953 
	C614.747803,72.076332 611.450928,73.237518 611.508240,77.073051 
	C611.565491,80.907059 614.941772,81.979561 618.390808,82.004044 
	C622.304443,82.031830 626.257629,82.312500 630.123413,81.870049 
	C635.776489,81.223015 640.277893,76.353569 639.990479,71.855919 
	C639.692139,67.186264 636.270813,65.053123 629.183899,64.977966 
	C626.854980,64.953270 624.528809,64.679855 622.201355,64.520180 
	C622.101562,63.872356 622.001770,63.224537 621.901978,62.576714 
	C623.511597,62.007252 625.084778,61.281952 626.737183,60.895420 
	C633.698608,59.267048 635.458801,57.248039 635.990356,50.005684 
	C636.006531,49.993256 636.036194,49.964554 636.431885,49.954407 
	C638.885071,49.629509 640.942566,49.314758 643.000000,49.000000 
M275.796356,45.991829 
	C276.799255,46.708794 278.701111,47.470463 278.667999,48.135914 
	C278.275360,56.032387 281.370331,64.320412 276.414795,71.523239 
	C280.947418,71.523239 285.606598,71.523239 290.520050,71.523239 
	C289.528473,69.808899 288.239960,68.591774 288.197083,67.332245 
	C288.010925,61.863197 288.048431,56.374477 288.334564,50.910175 
	C288.403015,49.603336 289.496307,48.092201 290.544952,47.149780 
	C292.563507,45.335674 294.804749,45.986961 294.772552,48.605171 
	C294.677704,56.316120 296.539307,64.193741 293.255280,72.000671 
	C295.605743,72.000671 297.917877,72.000664 300.230042,72.000664 
	C302.587524,72.000664 304.945038,72.000671 306.902954,72.000671 
	C306.098145,69.276939 305.172455,67.419632 305.063141,65.515450 
	C304.815826,61.207748 305.191986,56.862766 304.915771,52.558544 
	C304.389465,44.358135 299.548615,41.233696 291.716919,43.625546 
	C290.481934,44.002728 289.014679,43.540531 287.699707,43.749321 
	C283.457001,44.422981 278.682648,42.184349 274.445282,45.581123 
	C272.741028,44.724976 271.097382,43.366390 269.315765,43.151443 
	C267.467987,42.928520 265.497498,44.079369 263.561340,44.159088 
	C259.301453,44.334484 255.029373,44.213528 250.380753,44.213528 
	C253.871307,48.540855 254.006317,66.385612 251.070724,71.436600 
	C256.433594,71.436600 261.858002,71.436600 267.282440,71.436600 
	C262.925873,70.254517 262.847168,67.169876 262.969818,63.792656 
	C263.108276,59.979919 262.841431,56.148453 263.073517,52.344822 
	C263.189240,50.448170 264.024567,48.595421 264.498322,46.855305 
	C265.590240,49.074547 266.014069,51.480415 267.379425,52.281376 
	C268.775513,53.100376 271.844391,53.090569 272.829346,52.099819 
	C274.205658,50.715412 274.328552,48.084835 275.796356,45.991829 
M562.201721,70.125267 
	C558.664307,70.144920 558.347717,67.363945 558.115662,64.967766 
	C557.812744,61.839703 558.004272,58.662724 558.002075,55.506783 
	C557.996033,46.917393 558.000000,38.327995 558.000000,29.572365 
	C553.800598,29.846899 550.275330,30.077358 547.671936,30.247553 
	C548.252136,34.763775 548.780273,38.875175 549.340881,43.239464 
	C536.316528,41.928322 532.664734,46.822987 531.344604,54.185997 
	C530.679138,57.897167 531.487732,62.136364 532.607849,65.841087 
	C534.221191,71.177094 538.029236,73.283905 543.701355,72.982880 
	C550.136902,72.641350 556.566956,72.197586 563.924744,71.936523 
	C568.615723,71.936523 573.306641,71.936523 577.592102,71.936523 
	C572.147034,62.630867 576.982605,52.474930 574.257629,43.363075 
	C570.560181,43.717430 567.174194,44.041927 563.734192,44.371613 
	C564.556641,46.358635 565.801025,48.058849 565.887329,49.815922 
	C566.155884,55.284348 566.180176,60.786121 565.849060,66.247681 
	C565.765930,67.617912 563.995178,68.885796 562.201721,70.125267 
M435.034546,37.740723 
	C435.367035,36.396595 435.699554,35.052467 436.082123,33.506050 
	C430.834595,33.506050 425.906097,33.506050 421.296509,33.506050 
	C423.036133,37.667267 424.778687,41.508316 426.259460,45.447769 
	C429.066315,52.914989 431.882690,60.386181 434.371582,67.962013 
	C435.533844,71.499893 437.498871,72.653564 441.119019,71.920746 
	C443.422760,65.185371 445.705048,58.512589 448.362976,50.741615 
	C451.059296,58.710815 453.338745,65.448021 455.614197,72.173332 
	C459.420319,72.602379 461.230591,71.180733 462.315643,67.677650 
	C465.869537,56.203835 469.763306,44.835274 473.509460,33.477654 
	C470.822052,33.477654 467.253265,33.477654 463.176239,33.477654 
	C469.571655,38.743088 467.358459,44.655708 461.444489,57.662655 
	C459.843170,52.892082 458.378723,48.530121 456.914886,44.167953 
	C455.708038,40.571480 453.511383,36.965549 457.534119,33.643803 
	C451.920898,33.643803 446.866028,33.643803 441.283997,33.643803 
	C447.897186,42.011517 447.498322,49.925297 441.836334,58.690704 
	C439.480286,51.642052 437.283813,45.070751 435.034546,37.740723 
M381.001221,59.462772 
	C381.001221,62.850018 381.001221,66.237267 381.001221,70.113930 
	C378.034393,69.628792 376.152710,69.321098 373.999878,68.969055 
	C373.999878,63.446709 373.888885,58.130276 374.034241,52.820862 
	C374.155396,48.397148 372.972382,44.864189 368.426666,43.359634 
	C363.217163,41.635368 355.108795,43.197857 353.147552,46.612801 
	C352.269653,48.141365 352.159363,50.439396 352.534576,52.211689 
	C352.705994,53.021374 354.997223,54.020641 356.144348,53.830715 
	C357.731415,53.567951 359.950684,52.578819 360.439209,51.329746 
	C361.111420,49.611000 360.418793,47.358479 360.310913,45.334637 
	C362.391693,45.994614 364.713715,47.492817 364.712372,48.988937 
	C364.710297,51.284058 363.673126,54.181099 362.036072,55.710129 
	C360.233032,57.394173 357.150299,57.619556 354.813507,58.840923 
	C351.067230,60.799000 348.823425,63.685005 350.655151,68.188705 
	C352.319153,72.280144 356.512817,73.941788 361.055359,72.421104 
	C362.300720,72.004204 363.795837,70.941841 364.761322,71.298637 
	C373.159454,74.402176 381.692200,70.459663 390.088379,71.967964 
	C390.998108,72.131386 391.986694,71.856194 392.069672,71.849937 
	C391.350861,68.282722 390.173248,64.942932 390.093109,61.577019 
	C389.840668,50.972122 390.000092,40.357422 390.000092,29.572309 
	C385.795532,29.847042 382.269348,30.077446 379.484894,30.259386 
	C382.382446,39.791370 380.409668,49.234665 381.001221,59.462772 
M526.025879,72.000305 
	C527.044067,71.858887 528.062256,71.717476 528.136719,71.707130 
	C527.351929,68.814430 526.163208,66.337479 526.093079,63.829258 
	C525.851318,55.181313 526.000061,46.522446 526.000000,37.867741 
	C526.000000,35.126118 526.000000,32.384495 526.000000,29.607391 
	C521.296692,29.879498 517.465393,30.101158 514.995361,30.244059 
	C515.911194,34.735725 516.728333,38.743305 517.593750,42.987839 
	C505.490814,42.984184 500.614960,45.436317 499.470795,52.659943 
	C498.816437,56.791088 499.147156,61.322556 500.129639,65.410553 
	C501.548584,71.314789 505.826172,73.592293 511.834229,72.993202 
	C516.286987,72.549179 520.761597,72.323532 526.025879,72.000305 
M332.485168,66.025398 
	C333.236176,68.161812 333.987183,70.298225 334.738220,72.434639 
	C335.286774,72.700996 335.835327,72.967354 336.383881,73.233711 
	C337.987610,71.412552 340.259277,69.848076 341.075500,67.724258 
	C344.059906,59.958546 346.559296,52.006451 349.135254,44.436409 
	C346.569122,44.436409 343.252319,44.436409 339.463104,44.436409 
	C344.774475,49.040344 344.796783,52.286091 339.780151,60.533012 
	C338.169464,55.863525 336.900024,51.422913 335.048370,47.240025 
	C334.425018,45.831890 332.372437,44.366760 330.879700,44.262280 
	C329.784027,44.185589 327.976715,46.075550 327.461548,47.453548 
	C325.953247,51.487953 324.932617,55.704681 323.720917,59.849976 
	C322.696747,54.642406 317.103058,50.277508 321.336029,44.272175 
	C316.445862,44.272175 311.746399,44.272175 307.498627,44.272175 
	C310.493134,52.202065 313.326447,60.097382 316.518921,67.844696 
	C317.197510,69.491364 319.184967,70.598663 320.569397,71.954445 
	C321.823608,70.438354 323.529236,69.106552 324.238892,67.368149 
	C325.756531,63.650391 326.758911,59.722267 328.274841,54.922569 
	C329.845154,59.143433 330.996887,62.239155 332.485168,66.025398 
M598.969177,67.781624 
	C598.540649,68.976547 598.112122,70.171463 597.625183,71.529198 
	C602.318359,71.529198 606.785034,71.529198 610.766357,71.529198 
	C610.108582,69.296341 609.183533,67.438553 609.077087,65.535011 
	C608.835938,61.221516 609.101562,56.882435 608.974365,52.559250 
	C608.724121,44.058994 603.297180,40.601761 595.431213,43.818764 
	C594.421814,44.231564 592.828186,45.207729 592.451843,44.869495 
	C588.457703,41.280136 584.616882,45.378181 579.941895,43.768715 
	C583.972900,49.486298 584.013550,66.254440 580.587280,71.608856 
	C585.272888,71.608856 589.734863,71.608856 594.147156,71.608856 
	C590.636475,64.060692 591.517944,56.606339 593.089294,49.240967 
	C593.347534,48.030415 595.692566,47.265049 597.073059,46.293941 
	C597.717834,47.679649 598.863342,49.045616 598.918884,50.454544 
	C599.135071,55.937771 599.005371,61.434631 598.969177,67.781624 
M198.900085,72.990082 
	C204.721588,72.361786 210.543076,71.733498 216.201538,71.122803 
	C216.201538,66.972572 216.201538,62.634541 216.201538,58.296513 
	C215.715317,58.231709 215.229095,58.166908 214.742874,58.102104 
	C214.111984,60.036312 213.517075,61.983162 212.842667,63.902073 
	C211.470078,67.807503 208.979446,70.548874 204.662659,70.941292 
	C200.440964,71.325066 197.726303,69.111687 196.175140,65.344429 
	C192.932098,57.468201 192.987885,49.505215 195.794373,41.544697 
	C197.252487,37.408806 199.945679,34.601330 204.693069,35.070255 
	C209.203415,35.515766 211.687302,38.415775 212.983109,42.606037 
	C213.457932,44.141468 214.333405,45.552986 215.026123,47.021030 
	C215.509094,46.887878 215.992065,46.754726 216.475037,46.621578 
	C217.056183,42.212391 217.881241,37.792694 216.376999,34.474865 
	C213.375488,34.474865 211.493607,34.941643 209.979858,34.392914 
	C203.887207,32.184330 197.980453,32.041935 192.229797,35.233772 
	C182.963348,40.377029 181.883179,49.082794 183.197983,58.171841 
	C184.389740,66.410126 189.861847,71.259834 198.900085,72.990082 
M223.471695,47.047955 
	C222.336899,51.435211 220.152634,55.856964 220.295471,60.202221 
	C220.557098,68.160927 225.409973,72.642189 232.225632,72.993614 
	C241.159195,73.454247 246.079330,70.723198 247.483109,63.645870 
	C248.207520,59.993683 248.272293,55.926064 247.462006,52.308933 
	C245.279922,42.568031 233.564423,39.817169 223.471695,47.047955 
M471.999817,60.281647 
	C472.347015,69.224472 477.213959,73.607925 486.111694,72.991653 
	C491.447205,72.622108 495.465759,68.766472 495.060852,63.998302 
	C494.271332,64.451591 493.473206,64.692757 492.993408,65.222328 
	C490.742096,67.707153 487.660706,69.382103 485.241913,66.823036 
	C483.093323,64.549812 482.449249,60.854553 481.141113,57.786983 
	C483.505829,57.191280 485.859894,56.546986 488.241211,56.027229 
	C489.034851,55.853996 489.898224,56.006527 490.729614,55.998619 
	C495.984680,55.948650 497.924957,53.430843 495.175323,48.965588 
	C493.571625,46.361248 490.231598,43.773468 487.297516,43.239288 
	C478.648743,41.664700 470.701019,47.486752 471.999817,60.281647 
M398.977997,71.999207 
	C402.669006,71.999207 406.360046,71.999207 409.291626,71.999207 
	C408.413635,68.620903 407.154480,65.913689 407.097290,63.181320 
	C406.864624,52.067303 407.000458,40.945576 407.000458,29.613983 
	C402.847565,29.861568 399.314026,30.072229 395.557068,30.296211 
	C398.975464,35.770447 398.988281,67.142952 395.666687,71.599548 
	C396.572571,71.744286 397.354401,71.869202 398.977997,71.999207 
M361.040710,96.142982 
	C357.607788,95.763374 354.176544,95.367477 350.741394,95.009239 
	C347.940552,94.717163 346.911621,96.052643 346.969910,98.802574 
	C347.085999,104.279572 346.787109,109.773239 347.103180,115.234344 
	C347.233734,117.490570 348.410339,121.544434 349.274719,121.588737 
	C353.794373,121.820320 351.306976,117.884293 351.998840,115.729355 
	C352.047424,115.578026 351.951874,115.367020 352.022614,115.238312 
	C352.594360,114.198151 353.202698,112.308929 353.775421,112.317451 
	C355.009308,112.335823 356.567963,113.042694 357.378113,113.992760 
	C358.755127,115.607666 359.741974,117.583282 360.738556,119.488014 
	C362.195862,122.273315 364.117371,122.510262 366.859711,121.085091 
	C366.140076,119.895973 365.611938,119.069504 365.129120,118.217361 
	C363.174133,114.766945 361.121307,111.783073 365.157288,107.803375 
	C368.056366,104.944695 365.821594,99.134598 361.040710,96.142982 
M332.884979,108.017670 
	C331.987823,108.735481 331.090698,109.453300 330.193573,110.171120 
	C331.034363,110.774559 331.847290,111.422607 332.723236,111.969742 
	C333.732239,112.599998 335.730225,113.289253 335.666046,113.693764 
	C335.456055,115.016693 334.712311,117.082161 333.796478,117.303963 
	C331.455048,117.871017 328.475189,118.463120 326.531891,117.488144 
	C321.701599,115.064690 320.557495,108.876663 323.250488,103.510643 
	C325.896606,98.238075 330.708405,97.599197 334.922150,101.672058 
	C336.227112,102.933426 338.297058,103.403397 341.177704,104.797554 
	C338.092224,96.656036 332.741699,93.813423 326.412384,95.342262 
	C319.184814,97.088089 316.535339,104.422539 317.195099,110.532677 
	C318.230042,120.117386 327.017792,125.516701 334.958862,121.882423 
	C339.178040,119.951485 342.069458,114.548302 340.895996,110.328850 
	C339.741425,106.177361 336.176666,108.705612 332.884979,108.017670 
M302.029358,122.815544 
	C309.475311,121.630486 312.090088,116.113861 312.684540,109.720078 
	C313.131134,104.917145 311.811157,100.145622 307.256927,97.156853 
	C302.974396,94.346405 298.463196,94.177437 294.095337,96.673698 
	C288.917816,99.632690 286.511475,107.014893 288.312866,113.345947 
	C289.986267,119.227058 294.651703,122.689995 302.029358,122.815544 
M236.002441,107.708839 
	C236.001938,108.208740 235.994003,108.708755 236.002045,109.208519 
	C236.122498,116.695343 240.121475,121.920097 246.475632,122.895714 
	C251.887680,123.726669 258.526611,119.864685 259.546997,114.467369 
	C260.912628,107.243835 260.592285,99.423813 253.441833,96.172066 
	C245.200943,92.424438 237.873352,96.804955 236.002441,107.708839 
M445.003052,115.361237 
	C445.003021,110.875031 445.232300,106.372147 444.907837,101.909531 
	C444.741486,99.621681 443.445770,95.430962 442.898834,95.469666 
	C438.507202,95.780373 440.650543,99.580765 439.972412,102.005356 
	C439.499969,103.694527 439.004211,106.322517 437.873840,106.726547 
	C431.294922,109.078072 428.110748,106.703476 428.002747,99.912468 
	C427.994812,99.414101 428.169556,98.821472 427.960052,98.434875 
	C427.344513,97.299133 426.578033,96.245186 425.870636,95.159225 
	C424.928650,96.284988 423.216278,97.381065 423.171539,98.541397 
	C422.909424,105.343628 422.934845,112.164032 423.144287,118.969643 
	C423.175323,119.977394 424.696228,120.939278 425.527832,121.922394 
	C426.347015,120.929230 427.386475,120.038475 427.911774,118.908669 
	C428.293884,118.086800 428.130096,116.928551 427.980072,115.955681 
	C427.226349,111.067223 429.400085,109.889114 434.087830,109.830132 
	C439.040802,109.767822 440.706360,111.442497 440.048920,116.126022 
	C439.866974,117.422272 439.791901,118.888603 440.234161,120.063789 
	C440.537476,120.869804 441.770905,121.663139 442.681244,121.788330 
	C443.319641,121.876114 444.528290,120.957840 444.747528,120.258499 
	C445.130646,119.036507 444.948364,117.637238 445.003052,115.361237 
M209.816757,95.300774 
	C209.346558,95.748344 208.476562,96.186424 208.465683,96.644905 
	C208.280487,104.445236 208.144043,112.248566 208.208679,120.049477 
	C208.213882,120.677437 209.781555,121.799240 210.590302,121.770409 
	C211.389496,121.741913 212.490128,120.682152 212.833679,119.824509 
	C213.239075,118.812401 213.141495,117.506386 212.970413,116.371765 
	C212.227982,111.448387 213.953369,109.648544 219.191879,109.821495 
	C223.695862,109.970184 225.730698,111.081306 225.025970,115.745590 
	C224.854095,116.883141 224.728302,118.178116 225.108002,119.206192 
	C225.486740,120.231750 226.526520,121.013191 227.276474,121.901657 
	C228.175735,120.995148 229.826660,120.111275 229.854752,119.178543 
	C230.069992,112.028679 230.048904,104.867279 229.865219,97.715523 
	C229.842712,96.839310 228.424149,95.998955 227.652557,95.141983 
	C226.800217,96.008652 225.493881,96.746071 225.201736,97.772224 
	C224.761368,99.319077 225.132675,101.078262 224.963181,102.727066 
	C224.833328,103.990158 224.545807,106.237076 224.079575,106.303635 
	C221.002151,106.743034 217.796555,107.083191 214.773895,106.590202 
	C213.936798,106.453682 213.584976,103.381973 212.998032,101.661201 
	C212.251129,99.471466 214.865997,96.066383 209.816757,95.300774 
M383.273346,115.002953 
	C384.879761,116.279541 387.047241,117.246231 387.963043,118.904282 
	C389.389709,121.487221 390.624176,122.906128 393.793610,121.068222 
	C390.919403,113.155327 388.231506,105.350128 385.223541,97.670311 
	C383.988495,94.516975 380.233765,93.849243 379.188110,96.444740 
	C375.895844,104.616814 373.017181,112.955544 369.978394,121.229759 
	C370.530457,121.652840 371.082489,122.075928 371.634521,122.499008 
	C373.028168,121.368828 375.273468,120.468399 375.652222,119.064438 
	C376.695679,115.196480 379.168732,114.675560 383.273346,115.002953 
M202.582993,106.742905 
	C203.302887,99.862061 201.248062,96.806259 194.694778,95.457687 
	C192.614120,95.029526 190.418427,95.188530 188.284042,94.987015 
	C184.496002,94.629364 182.819351,96.129158 182.964722,100.095490 
	C183.177124,105.890587 182.849304,111.707634 183.134369,117.496483 
	C183.208740,119.006729 184.700134,120.447189 185.540710,121.919701 
	C186.361023,120.430298 187.883041,118.930824 187.861847,117.453514 
	C187.810944,113.909668 189.158203,112.662590 192.565735,112.977844 
	C197.027634,113.390617 200.208633,111.368843 202.582993,106.742905 
M413.693970,96.478928 
	C410.112366,95.986679 406.534698,95.463341 402.947998,95.011620 
	C399.840881,94.620293 398.898254,96.199638 398.961731,99.126167 
	C399.095276,105.283318 398.835724,111.453102 399.121521,117.599854 
	C399.189941,119.071945 400.762848,120.474075 401.643829,121.908379 
	C402.422485,120.537575 403.824799,119.179703 403.853516,117.793350 
	C403.918793,114.646431 404.546082,113.286522 408.200439,112.759743 
	C411.416931,112.296074 415.446869,110.496727 417.121948,107.966232 
	C419.591431,104.235573 418.005493,99.952766 413.693970,96.478928 
M463.668762,120.893669 
	C462.094360,110.933495 469.709686,104.101250 473.548401,95.160141 
	C465.317017,95.008331 466.077301,103.450653 461.281036,105.495781 
	C453.985107,94.823143 453.985107,94.823143 450.347290,96.090080 
	C450.565063,96.698303 450.693481,97.354019 451.011230,97.899452 
	C454.961365,104.680275 460.436981,110.858383 459.240082,119.666908 
	C459.180267,120.106949 461.763123,120.906082 463.668762,120.893669 
M274.496826,121.923836 
	C275.322662,120.761200 276.752808,119.651764 276.860748,118.425926 
	C277.180817,114.790306 276.981384,111.108803 276.982117,107.445244 
	C276.983612,99.878479 276.983948,99.884483 284.014801,98.560486 
	C284.254791,98.515297 284.423706,98.092567 285.384918,96.918633 
	C279.667694,93.331665 273.559784,95.569328 267.951355,95.106339 
	C266.336426,94.973015 264.614441,96.136002 262.941528,96.704666 
	C263.083374,97.274704 263.225189,97.844742 263.367004,98.414787 
	C264.595856,98.610168 265.859680,99.093079 267.047241,98.948730 
	C271.125885,98.452965 272.292572,100.280014 272.061493,104.115753 
	C271.791565,108.595657 271.869537,113.110344 272.075897,117.597092 
	C272.141907,119.032669 273.097137,120.427353 274.496826,121.923836 
M574.941467,31.542522 
	C573.106995,31.036898 571.096252,29.821590 569.486572,30.221289 
	C567.810303,30.637512 565.515747,32.494907 565.347046,33.938931 
	C565.180359,35.365742 566.999573,37.832275 568.531433,38.496849 
	C572.949951,40.413731 576.213867,37.224842 574.941467,31.542522 
z"/>
<path fill="#0B1B30" opacity="1.000000" stroke="none" 
	d="
M129.531342,1.000000 
	C130.842041,1.924480 131.512390,3.176888 132.553146,3.721860 
	C141.328857,8.317076 144.987717,15.793771 144.992157,25.370760 
	C145.006622,56.535934 144.848526,87.702225 145.079666,118.865692 
	C145.158966,129.556396 141.323105,137.530197 131.828415,142.643204 
	C131.147308,143.009979 130.667404,143.750381 130.046967,144.658539 
	C91.979103,145.000000 53.958210,145.000000 15.422418,144.659485 
	C11.633750,141.392914 8.313947,138.516098 5.106687,135.518875 
	C3.624525,134.133789 2.362066,132.513596 0.999998,131.000000 
	C1.000000,92.979103 1.000000,54.958210 1.342436,16.420765 
	C5.930464,11.550701 10.193026,7.213406 14.394133,2.817381 
	C14.793118,2.399882 14.807216,1.614559 15.000000,1.000000 
	C53.020893,1.000000 91.041786,1.000000 129.531342,1.000000 
M91.050987,87.440773 
	C90.430779,87.227600 89.381500,87.158661 89.254158,86.779800 
	C87.034149,80.175507 84.976013,73.516960 82.774231,66.906326 
	C81.730400,63.772339 80.551537,60.749321 85.433197,59.714512 
	C79.714119,59.714512 73.995049,59.714512 68.266449,59.714512 
	C72.005981,65.117355 74.994476,70.271965 72.867233,77.347824 
	C71.210869,81.043007 69.554504,84.738197 67.781807,87.642120 
	C65.396912,80.720558 62.845524,73.849350 60.727280,66.847122 
	C60.081238,64.711517 60.627110,62.215343 60.627110,59.753143 
	C55.953392,59.753143 50.562359,59.753143 45.573299,59.753143 
	C46.921944,62.275356 48.407524,64.431503 49.289913,66.811302 
	C53.166153,77.265488 57.015526,87.735023 60.549061,98.307800 
	C61.705135,101.766907 63.419922,102.821388 67.045547,101.608673 
	C68.254501,97.863663 69.526817,93.922371 71.211403,89.392761 
	C72.820107,85.559746 74.428810,81.726723 76.157814,78.667381 
	C78.713432,86.395607 81.269043,94.123825 83.792908,101.756027 
	C85.662704,101.756027 87.252106,101.756027 88.855652,101.756027 
	C90.359093,96.652885 91.787605,91.804092 93.753609,86.048439 
	C93.419823,85.510796 93.086029,84.973160 92.752243,84.435516 
	C92.304398,85.183670 91.856552,85.931816 91.050987,87.440773 
M34.308243,59.719582 
	C26.025906,57.100758 18.457266,58.428577 12.330846,64.645782 
	C5.615013,71.461128 4.750348,79.968918 7.143332,88.784706 
	C10.451079,100.970497 24.705923,106.767731 36.618771,100.600243 
	C38.563709,100.600243 40.508648,100.600243 42.325344,100.600243 
	C42.325344,96.731194 42.325344,91.767456 42.325344,87.179085 
	C39.776825,91.479027 37.284752,95.683739 34.014019,100.037727 
	C26.916351,102.410187 22.396217,100.515457 19.704565,93.670425 
	C16.747137,86.149521 16.785479,78.361908 18.783224,70.651497 
	C21.037064,61.952660 24.793354,59.705315 34.083843,61.733212 
	C36.856949,65.679352 39.630054,69.625496 42.501762,73.711952 
	C42.501762,69.073586 42.501762,64.273811 42.501762,58.290401 
	C41.094299,60.445724 40.376675,61.544662 39.733139,62.530136 
	C37.877258,61.596722 36.411171,60.859352 34.308243,59.719582 
M106.817688,60.962627 
	C107.903954,62.669163 109.865402,64.343773 109.929031,66.087616 
	C110.250099,74.887360 110.100395,83.705215 110.065552,92.516525 
	C110.051392,96.097549 111.125175,100.169128 105.112587,101.645569 
	C112.968575,101.645569 119.620300,101.645569 127.129639,101.645569 
	C119.523918,98.410439 119.154472,97.389725 120.507072,85.903389 
	C125.248177,84.806793 130.051605,84.252571 134.401459,82.543747 
	C139.437683,80.565300 141.908829,75.152756 141.207993,69.845757 
	C140.505066,64.522873 137.001938,60.953186 132.194595,60.479992 
	C123.566658,59.630733 114.818291,60.005119 105.164383,59.777058 
	C100.812851,59.560707 96.461327,59.344357 92.109795,59.128010 
	C91.874878,59.632988 91.639961,60.137966 91.405037,60.642944 
	C100.393982,61.596489 95.387009,68.559258 96.814476,74.060265 
	C100.509560,63.698025 101.515190,62.327354 106.817688,60.962627 
M96.700630,76.033615 
	C96.172363,75.817314 95.644104,75.601021 95.115837,75.384720 
	C94.078621,78.397087 93.041405,81.409447 92.004189,84.421814 
	C92.633514,84.623535 93.262848,84.825256 93.892174,85.026985 
	C94.780823,82.370171 95.669464,79.713356 96.700630,76.033615 
M96.000000,73.500000 
	C96.199997,73.633331 96.400002,73.766663 96.599998,73.900002 
	C96.566666,73.599998 96.533333,73.300003 96.000000,73.500000 
z"/>
<path fill="#0A192F" opacity="1.000000" stroke="none" 
	d="
M643.000000,48.583336 
	C640.942566,49.314758 638.885071,49.629509 636.424255,49.738075 
	C635.897644,49.291882 635.774353,49.051872 635.651062,48.811871 
	C635.758728,49.213955 635.866455,49.616032 635.974121,50.018112 
	C635.458801,57.248039 633.698608,59.267048 626.737183,60.895420 
	C625.084778,61.281952 623.511597,62.007252 621.901978,62.576714 
	C622.001770,63.224537 622.101562,63.872356 622.201355,64.520180 
	C624.528809,64.679855 626.854980,64.953270 629.183899,64.977966 
	C636.270813,65.053123 639.692139,67.186264 639.990479,71.855919 
	C640.277893,76.353569 635.776489,81.223015 630.123413,81.870049 
	C626.257629,82.312500 622.304443,82.031830 618.390808,82.004044 
	C614.941772,81.979561 611.565491,80.907059 611.508240,77.073051 
	C611.450928,73.237518 614.747803,72.076332 618.577393,72.342697 
	C616.694641,78.197411 618.757690,81.315323 624.494446,80.938553 
	C625.953308,80.842743 627.709717,80.653252 628.739502,79.797150 
	C630.082642,78.680611 631.816589,76.674072 631.575989,75.388588 
	C631.326599,74.056404 629.044250,72.483269 627.426453,72.168007 
	C624.705444,71.637779 621.806824,72.019142 618.982910,72.017021 
	C614.028870,67.595398 614.051453,65.380653 618.449890,61.495052 
	C616.588745,58.725121 613.721191,56.253071 613.226562,53.373474 
	C611.917175,45.749256 618.207092,41.323776 627.524536,43.227680 
	C630.733643,43.883419 633.328430,44.160961 636.418945,42.601898 
	C637.796326,41.907082 640.286499,43.418224 642.635803,43.964069 
	C643.000000,45.388889 643.000000,46.777779 643.000000,48.583336 
M622.001648,53.236977 
	C622.479614,55.082638 622.957520,56.928299 623.435486,58.773964 
	C624.056030,58.699974 624.676636,58.625988 625.297241,58.552002 
	C625.535706,56.543697 626.132751,54.496620 625.920898,52.537022 
	C625.662537,50.147774 624.724182,47.832043 624.080017,45.484516 
	C623.386841,47.778500 622.693726,50.072483 622.001648,53.236977 
z"/>
<path fill="#000000" opacity="1.000000" stroke="none" 
	d="
M14.525872,1.000000 
	C14.807216,1.614559 14.793118,2.399882 14.394133,2.817381 
	C10.193026,7.213406 5.930464,11.550701 1.342436,15.952106 
	C1.000000,11.078642 1.000000,6.157284 1.000000,1.000000 
	C5.348784,1.000000 9.700265,1.000000 14.525872,1.000000 
z"/>
<path fill="#000000" opacity="1.000000" stroke="none" 
	d="
M0.999998,131.474121 
	C2.362066,132.513596 3.624525,134.133789 5.106687,135.518875 
	C8.313947,138.516098 11.633750,141.392914 14.953760,144.659485 
	C10.409401,145.000000 5.818802,145.000000 1.000000,145.000000 
	C1.000000,140.651093 1.000000,136.299683 0.999998,131.474121 
z"/>
<path fill="#0A192F" opacity="1.000000" stroke="none" 
	d="
M435.060913,38.120087 
	C437.283813,45.070751 439.480286,51.642052 441.836334,58.690704 
	C447.498322,49.925297 447.897186,42.011517 441.283997,33.643803 
	C446.866028,33.643803 451.920898,33.643803 457.534119,33.643803 
	C453.511383,36.965549 455.708038,40.571480 456.914886,44.167953 
	C458.378723,48.530121 459.843170,52.892082 461.444489,57.662655 
	C467.358459,44.655708 469.571655,38.743088 463.176239,33.477654 
	C467.253265,33.477654 470.822052,33.477654 473.509460,33.477654 
	C469.763306,44.835274 465.869537,56.203835 462.315643,67.677650 
	C461.230591,71.180733 459.420319,72.602379 455.614197,72.173332 
	C453.338745,65.448021 451.059296,58.710815 448.362976,50.741615 
	C445.705048,58.512589 443.422760,65.185371 441.119019,71.920746 
	C437.498871,72.653564 435.533844,71.499893 434.371582,67.962013 
	C431.882690,60.386181 429.066315,52.914989 426.259460,45.447769 
	C424.778687,41.508316 423.036133,37.667267 421.296509,33.506050 
	C425.906097,33.506050 430.834595,33.506050 436.082123,33.506050 
	C435.699554,35.052467 435.367035,36.396595 435.060913,38.120087 
z"/>
<path fill="#0A1A2F" opacity="1.000000" stroke="none" 
	d="
M381.001221,58.967735 
	C380.409668,49.234665 382.382446,39.791370 379.484894,30.259386 
	C382.269348,30.077446 385.795532,29.847042 390.000092,29.572309 
	C390.000092,40.357422 389.840668,50.972122 390.093109,61.577019 
	C390.173248,64.942932 391.350861,68.282722 392.069672,71.849937 
	C391.986694,71.856194 390.998108,72.131386 390.088379,71.967964 
	C381.692200,70.459663 373.159454,74.402176 364.761322,71.298637 
	C363.795837,70.941841 362.300720,72.004204 361.055359,72.421104 
	C356.512817,73.941788 352.319153,72.280144 350.655151,68.188705 
	C348.823425,63.685005 351.067230,60.799000 354.813507,58.840923 
	C357.150299,57.619556 360.233032,57.394173 362.036072,55.710129 
	C363.673126,54.181099 364.710297,51.284058 364.712372,48.988937 
	C364.713715,47.492817 362.391693,45.994614 360.310913,45.334637 
	C360.418793,47.358479 361.111420,49.611000 360.439209,51.329746 
	C359.950684,52.578819 357.731415,53.567951 356.144348,53.830715 
	C354.997223,54.020641 352.705994,53.021374 352.534576,52.211689 
	C352.159363,50.439396 352.269653,48.141365 353.147552,46.612801 
	C355.108795,43.197857 363.217163,41.635368 368.426666,43.359634 
	C372.972382,44.864189 374.155396,48.397148 374.034241,52.820862 
	C373.888885,58.130276 373.999878,63.446709 373.999878,68.969055 
	C376.152710,69.321098 378.034393,69.628792 381.001221,70.113930 
	C381.001221,66.237267 381.001221,62.850018 381.001221,58.967735 
M362.012024,59.510983 
	C361.310822,60.423599 360.154480,61.270798 360.011780,62.263683 
	C359.779633,63.878914 360.015472,65.650261 360.503998,67.215187 
	C360.620178,67.587341 363.390015,67.667870 363.460968,67.434059 
	C364.146118,65.175606 364.642639,62.832848 364.855255,60.483620 
	C364.892639,60.070576 363.362701,59.515678 362.012024,59.510983 
z"/>
<path fill="#0A192F" opacity="1.000000" stroke="none" 
	d="
M562.999390,71.798264 
	C556.566956,72.197586 550.136902,72.641350 543.701355,72.982880 
	C538.029236,73.283905 534.221191,71.177094 532.607849,65.841087 
	C531.487732,62.136364 530.679138,57.897167 531.344604,54.185997 
	C532.664734,46.822987 536.316528,41.928322 549.340881,43.239464 
	C548.780273,38.875175 548.252136,34.763775 547.671936,30.247553 
	C550.275330,30.077358 553.800598,29.846899 558.000000,29.572365 
	C558.000000,38.327995 557.996033,46.917393 558.002075,55.506783 
	C558.004272,58.662724 557.812744,61.839703 558.115662,64.967766 
	C558.347717,67.363945 558.664307,70.144920 562.600891,70.427979 
	C562.999817,71.086548 562.999634,71.442406 562.999390,71.798264 
M544.792480,69.731934 
	C548.162537,69.811211 548.956116,67.614212 548.980530,64.866867 
	C549.026001,59.737164 549.142639,54.599575 548.894775,49.481491 
	C548.829163,48.127434 547.541687,46.832558 546.815308,45.510506 
	C545.482727,46.275982 543.742859,46.733425 542.889587,47.861458 
	C539.581116,52.235252 540.427612,64.829536 544.792480,69.731934 
z"/>
<path fill="#0A1A2F" opacity="1.000000" stroke="none" 
	d="
M525.626160,72.000458 
	C520.761597,72.323532 516.286987,72.549179 511.834229,72.993202 
	C505.826172,73.592293 501.548584,71.314789 500.129639,65.410553 
	C499.147156,61.322556 498.816437,56.791088 499.470795,52.659943 
	C500.614960,45.436317 505.490814,42.984184 517.593750,42.987839 
	C516.728333,38.743305 515.911194,34.735725 514.995361,30.244059 
	C517.465393,30.101158 521.296692,29.879498 526.000000,29.607391 
	C526.000000,32.384495 526.000000,35.126118 526.000000,37.867741 
	C526.000061,46.522446 525.851318,55.181313 526.093079,63.829258 
	C526.163208,66.337479 527.351929,68.814430 528.136719,71.707130 
	C528.062256,71.717476 527.044067,71.858887 525.626160,72.000458 
M508.780853,55.149612 
	C508.866394,58.390224 508.523285,61.724087 509.200256,64.836037 
	C509.598236,66.665535 511.617310,68.142403 512.907227,69.777863 
	C514.259888,68.124474 516.456482,66.621925 516.784729,64.785431 
	C517.415771,61.255035 517.166138,57.524616 516.945190,53.897655 
	C516.759705,50.852901 518.523743,45.985416 514.003174,45.656620 
	C509.222595,45.308914 509.420654,50.273975 508.957306,53.825043 
	C508.935913,53.988876 508.932678,54.155079 508.780853,55.149612 
z"/>
<path fill="#0A192F" opacity="1.000000" stroke="none" 
	d="
M332.316895,65.680138 
	C330.996887,62.239155 329.845154,59.143433 328.274841,54.922569 
	C326.758911,59.722267 325.756531,63.650391 324.238892,67.368149 
	C323.529236,69.106552 321.823608,70.438354 320.569397,71.954453 
	C319.184967,70.598663 317.197510,69.491364 316.518921,67.844696 
	C313.326447,60.097382 310.493134,52.202065 307.498627,44.272175 
	C311.746399,44.272175 316.445862,44.272175 321.336029,44.272175 
	C317.103058,50.277508 322.696747,54.642406 323.720917,59.849976 
	C324.932617,55.704681 325.953247,51.487953 327.461548,47.453548 
	C327.976715,46.075550 329.784027,44.185589 330.879700,44.262280 
	C332.372437,44.366760 334.425018,45.831890 335.048370,47.240025 
	C336.900024,51.422913 338.169464,55.863525 339.780151,60.533012 
	C344.796783,52.286091 344.774475,49.040344 339.463104,44.436409 
	C343.252319,44.436409 346.569122,44.436409 349.135254,44.436409 
	C346.559296,52.006451 344.059906,59.958546 341.075500,67.724258 
	C340.259277,69.848076 337.987610,71.412552 336.383881,73.233711 
	C335.835327,72.967354 335.286774,72.700996 334.738220,72.434639 
	C333.987183,70.298225 333.236176,68.161812 332.316895,65.680138 
z"/>
<path fill="#0A1A2F" opacity="1.000000" stroke="none" 
	d="
M275.012268,46.021179 
	C278.682648,42.184349 283.457001,44.422981 287.699707,43.749321 
	C289.014679,43.540531 290.481934,44.002728 291.716919,43.625546 
	C299.548615,41.233696 304.389465,44.358135 304.915771,52.558544 
	C305.191986,56.862766 304.815826,61.207748 305.063141,65.515450 
	C305.172455,67.419632 306.098145,69.276939 306.902954,72.000671 
	C304.945038,72.000671 302.587524,72.000664 300.230042,72.000664 
	C297.917877,72.000664 295.605743,72.000671 293.255280,72.000671 
	C296.539307,64.193741 294.677704,56.316120 294.772552,48.605171 
	C294.804749,45.986961 292.563507,45.335674 290.544952,47.149780 
	C289.496307,48.092201 288.403015,49.603336 288.334564,50.910175 
	C288.048431,56.374477 288.010925,61.863197 288.197083,67.332245 
	C288.239960,68.591774 289.528473,69.808899 290.520050,71.523239 
	C285.606598,71.523239 280.947418,71.523239 276.414795,71.523239 
	C281.370331,64.320412 278.275360,56.032387 278.667999,48.135914 
	C278.701111,47.470463 276.799255,46.708794 275.398865,45.997196 
	C275.001404,46.002563 275.012268,46.021179 275.012268,46.021179 
z"/>
<path fill="#0A1A2F" opacity="1.000000" stroke="none" 
	d="
M598.986816,67.354019 
	C599.005371,61.434631 599.135071,55.937771 598.918884,50.454544 
	C598.863342,49.045616 597.717834,47.679649 597.073120,46.293938 
	C595.692566,47.265049 593.347534,48.030415 593.089294,49.240967 
	C591.517944,56.606339 590.636475,64.060692 594.147156,71.608856 
	C589.734863,71.608856 585.272888,71.608856 580.587280,71.608856 
	C584.013550,66.254440 583.972900,49.486298 579.941895,43.768715 
	C584.616882,45.378181 588.457703,41.280136 592.451843,44.869495 
	C592.828186,45.207729 594.421814,44.231564 595.431213,43.818764 
	C603.297180,40.601761 608.724121,44.058994 608.974365,52.559250 
	C609.101562,56.882435 608.835938,61.221516 609.077087,65.535011 
	C609.183533,67.438553 610.108582,69.296341 610.766357,71.529198 
	C606.785034,71.529198 602.318359,71.529198 597.625183,71.529198 
	C598.112122,70.171463 598.540649,68.976547 598.986816,67.354019 
z"/>
<path fill="#0A192F" opacity="1.000000" stroke="none" 
	d="
M198.466614,72.972610 
	C189.861847,71.259834 184.389740,66.410126 183.197983,58.171841 
	C181.883179,49.082794 182.963348,40.377029 192.229797,35.233772 
	C197.980453,32.041935 203.887207,32.184330 209.979858,34.392914 
	C211.493607,34.941643 213.375488,34.474865 216.376999,34.474865 
	C217.881241,37.792694 217.056183,42.212391 216.475037,46.621578 
	C215.992065,46.754726 215.509094,46.887878 215.026123,47.021030 
	C214.333405,45.552986 213.457932,44.141468 212.983109,42.606037 
	C211.687302,38.415775 209.203415,35.515766 204.693069,35.070255 
	C199.945679,34.601330 197.252487,37.408806 195.794373,41.544697 
	C192.987885,49.505215 192.932098,57.468201 196.175140,65.344429 
	C197.726303,69.111687 200.440964,71.325066 204.662659,70.941292 
	C208.979446,70.548874 211.470078,67.807503 212.842667,63.902073 
	C213.517075,61.983162 214.111984,60.036312 214.742874,58.102104 
	C215.229095,58.166908 215.715317,58.231709 216.201538,58.296513 
	C216.201538,62.634541 216.201538,66.972572 216.201538,71.122803 
	C210.543076,71.733498 204.721588,72.361786 198.466614,72.972610 
z"/>
<path fill="#0A192F" opacity="1.000000" stroke="none" 
	d="
M223.741150,46.777313 
	C233.564423,39.817169 245.279922,42.568031 247.462006,52.308933 
	C248.272293,55.926064 248.207520,59.993683 247.483109,63.645870 
	C246.079330,70.723198 241.159195,73.454247 232.225632,72.993614 
	C225.409973,72.642189 220.557098,68.160927 220.295471,60.202221 
	C220.152634,55.856964 222.336899,51.435211 223.741150,46.777313 
M230.398148,64.698364 
	C230.578278,65.336884 230.597015,66.096870 230.968933,66.591057 
	C232.066528,68.049500 233.303909,69.402756 234.486588,70.797165 
	C235.535156,69.397057 237.189285,68.128021 237.525665,66.573776 
	C238.859955,60.408764 239.204041,54.151417 236.954926,48.083729 
	C236.543839,46.974705 235.345428,46.157520 234.510468,45.205620 
	C233.500488,46.177704 231.756027,47.048363 231.605392,48.139111 
	C230.886261,53.347004 230.599701,58.614632 230.398148,64.698364 
z"/>
<path fill="#0A192F" opacity="1.000000" stroke="none" 
	d="
M471.999786,59.832390 
	C470.701019,47.486752 478.648743,41.664700 487.297516,43.239288 
	C490.231598,43.773468 493.571625,46.361248 495.175323,48.965588 
	C497.924957,53.430843 495.984680,55.948650 490.729614,55.998619 
	C489.898224,56.006527 489.034851,55.853996 488.241211,56.027229 
	C485.859894,56.546986 483.505829,57.191280 481.141113,57.786983 
	C482.449249,60.854553 483.093323,64.549812 485.241913,66.823036 
	C487.660706,69.382103 490.742096,67.707153 492.993408,65.222328 
	C493.473206,64.692757 494.271332,64.451591 495.060852,63.998302 
	C495.465759,68.766472 491.447205,72.622108 486.111694,72.991653 
	C477.213959,73.607925 472.347015,69.224472 471.999786,59.832390 
M485.401520,53.969952 
	C489.168213,51.709309 489.023193,49.033382 484.161041,44.739773 
	C483.112122,47.560490 482.123016,50.042336 481.403442,52.600018 
	C481.360443,52.752804 483.475433,53.512707 485.401520,53.969952 
z"/>
<path fill="#0A1A2F" opacity="1.000000" stroke="none" 
	d="
M398.557129,71.996658 
	C397.354401,71.869202 396.572571,71.744286 395.666687,71.599548 
	C398.988281,67.142952 398.975464,35.770447 395.557068,30.296211 
	C399.314026,30.072229 402.847565,29.861568 407.000458,29.613983 
	C407.000458,40.945576 406.864624,52.067303 407.097290,63.181320 
	C407.154480,65.913689 408.413635,68.620903 409.291626,71.999207 
	C406.360046,71.999207 402.669006,71.999207 398.557129,71.996658 
z"/>
<path fill="#09192F" opacity="1.000000" stroke="none" 
	d="
M274.994568,45.995010 
	C274.328552,48.084835 274.205658,50.715412 272.829346,52.099819 
	C271.844391,53.090569 268.775513,53.100376 267.379425,52.281376 
	C266.014069,51.480415 265.590240,49.074547 264.498322,46.855305 
	C264.024567,48.595421 263.189240,50.448170 263.073517,52.344822 
	C262.841431,56.148453 263.108276,59.979919 262.969818,63.792656 
	C262.847168,67.169876 262.925873,70.254517 267.282440,71.436600 
	C261.858002,71.436600 256.433594,71.436600 251.070724,71.436600 
	C254.006317,66.385612 253.871307,48.540855 250.380753,44.213528 
	C255.029373,44.213528 259.301453,44.334484 263.561340,44.159088 
	C265.497498,44.079369 267.467987,42.928520 269.315765,43.151443 
	C271.097382,43.366390 272.741028,44.724976 274.728760,45.801151 
	C275.012268,46.021179 275.001404,46.002563 274.994568,45.995010 
z"/>
<path fill="#0A1A2F" opacity="1.000000" stroke="none" 
	d="
M361.418915,96.290886 
	C365.821594,99.134598 368.056366,104.944695 365.157288,107.803375 
	C361.121307,111.783073 363.174133,114.766945 365.129120,118.217361 
	C365.611938,119.069504 366.140076,119.895973 366.859711,121.085091 
	C364.117371,122.510262 362.195862,122.273315 360.738556,119.488014 
	C359.741974,117.583282 358.755127,115.607666 357.378113,113.992760 
	C356.567963,113.042694 355.009308,112.335823 353.775421,112.317451 
	C353.202698,112.308929 352.594360,114.198151 352.022614,115.238312 
	C351.951874,115.367020 352.047424,115.578026 351.998840,115.729355 
	C351.306976,117.884293 353.794373,121.820320 349.274719,121.588737 
	C348.410339,121.544434 347.233734,117.490570 347.103180,115.234344 
	C346.787109,109.773239 347.085999,104.279572 346.969910,98.802574 
	C346.911621,96.052643 347.940552,94.717163 350.741394,95.009239 
	C354.176544,95.367477 357.607788,95.763374 361.418915,96.290886 
M359.967072,100.576912 
	C357.535828,100.290070 355.104553,100.003235 352.673279,99.716400 
	C352.525085,101.973045 351.656921,104.562752 352.490723,106.365105 
	C353.015808,107.500183 356.184143,108.086952 358.000580,107.813965 
	C362.172913,107.186951 361.123169,104.012611 359.967072,100.576912 
z"/>
<path fill="#091A2F" opacity="1.000000" stroke="none" 
	d="
M333.325775,108.010193 
	C336.176666,108.705612 339.741425,106.177361 340.895996,110.328850 
	C342.069458,114.548302 339.178040,119.951485 334.958862,121.882423 
	C327.017792,125.516701 318.230042,120.117386 317.195099,110.532677 
	C316.535339,104.422539 319.184814,97.088089 326.412384,95.342262 
	C332.741699,93.813423 338.092224,96.656036 341.177704,104.797554 
	C338.297058,103.403397 336.227112,102.933426 334.922150,101.672058 
	C330.708405,97.599197 325.896606,98.238075 323.250488,103.510643 
	C320.557495,108.876663 321.701599,115.064690 326.531891,117.488144 
	C328.475189,118.463120 331.455048,117.871017 333.796478,117.303963 
	C334.712311,117.082161 335.456055,115.016693 335.666046,113.693764 
	C335.730225,113.289253 333.732239,112.599998 332.723236,111.969742 
	C331.847290,111.422607 331.034363,110.774559 330.193573,110.171120 
	C331.090698,109.453300 331.987823,108.735481 333.325775,108.010193 
z"/>
<path fill="#091A2F" opacity="1.000000" stroke="none" 
	d="
M301.633392,122.877365 
	C294.651703,122.689995 289.986267,119.227058 288.312866,113.345947 
	C286.511475,107.014893 288.917816,99.632690 294.095337,96.673698 
	C298.463196,94.177437 302.974396,94.346405 307.256927,97.156853 
	C311.811157,100.145622 313.131134,104.917145 312.684540,109.720078 
	C312.090088,116.113861 309.475311,121.630486 301.633392,122.877365 
M303.205841,117.877823 
	C307.250763,115.361069 308.307770,111.452126 307.921997,107.081764 
	C307.483246,102.111473 304.050598,98.773415 300.036102,99.047829 
	C295.170868,99.380386 292.750732,103.248787 292.994873,110.302628 
	C293.180939,115.678108 296.031433,118.897163 300.645386,118.845314 
	C301.270325,118.838287 301.890686,118.425896 303.205841,117.877823 
z"/>
<path fill="#091A30" opacity="1.000000" stroke="none" 
	d="
M236.006546,107.278000 
	C237.873352,96.804955 245.200943,92.424438 253.441833,96.172066 
	C260.592285,99.423813 260.912628,107.243835 259.546997,114.467369 
	C258.526611,119.864685 251.887680,123.726669 246.475632,122.895714 
	C240.121475,121.920097 236.122498,116.695343 236.002045,109.208519 
	C235.994003,108.708755 236.001938,108.208740 236.006546,107.278000 
M254.848724,103.985855 
	C250.327881,98.010513 245.079102,97.265266 242.439362,102.678429 
	C241.047272,105.533119 240.944702,109.326851 241.237350,112.609467 
	C241.557953,116.205772 244.369553,119.306557 247.881119,118.625870 
	C250.568375,118.104958 253.513351,115.364708 254.906921,112.823647 
	C256.054413,110.731277 255.092606,107.482140 254.848724,103.985855 
z"/>
<path fill="#081B2C" opacity="1.000000" stroke="none" 
	d="
M445.003052,115.836746 
	C444.948364,117.637238 445.130646,119.036507 444.747528,120.258499 
	C444.528290,120.957840 443.319641,121.876114 442.681244,121.788330 
	C441.770905,121.663139 440.537476,120.869804 440.234161,120.063789 
	C439.791901,118.888603 439.866974,117.422272 440.048920,116.126022 
	C440.706360,111.442497 439.040802,109.767822 434.087830,109.830132 
	C429.400085,109.889114 427.226349,111.067223 427.980072,115.955681 
	C428.130096,116.928551 428.293884,118.086800 427.911774,118.908669 
	C427.386475,120.038475 426.347015,120.929230 425.527832,121.922386 
	C424.696228,120.939278 423.175323,119.977394 423.144287,118.969643 
	C422.934845,112.164032 422.909424,105.343628 423.171539,98.541397 
	C423.216278,97.381065 424.928650,96.284988 425.870636,95.159218 
	C426.578033,96.245186 427.344513,97.299133 427.960052,98.434875 
	C428.169556,98.821472 427.994812,99.414101 428.002747,99.912468 
	C428.110748,106.703476 431.294922,109.078072 437.873840,106.726547 
	C439.004211,106.322517 439.499969,103.694527 439.972412,102.005356 
	C440.650543,99.580765 438.507202,95.780373 442.898834,95.469666 
	C443.445770,95.430962 444.741486,99.621681 444.907837,101.909531 
	C445.232300,106.372147 445.003021,110.875031 445.003052,115.836746 
z"/>
<path fill="#0A1A2F" opacity="1.000000" stroke="none" 
	d="
M210.228729,95.217255 
	C214.865997,96.066383 212.251129,99.471466 212.998032,101.661201 
	C213.584976,103.381973 213.936798,106.453682 214.773895,106.590202 
	C217.796555,107.083191 221.002151,106.743034 224.079575,106.303635 
	C224.545807,106.237076 224.833328,103.990158 224.963181,102.727066 
	C225.132675,101.078262 224.761368,99.319077 225.201736,97.772224 
	C225.493881,96.746071 226.800217,96.008652 227.652557,95.141983 
	C228.424149,95.998955 229.842712,96.839310 229.865219,97.715523 
	C230.048904,104.867279 230.069992,112.028679 229.854752,119.178543 
	C229.826660,120.111275 228.175735,120.995148 227.276474,121.901657 
	C226.526520,121.013191 225.486740,120.231750 225.108002,119.206192 
	C224.728302,118.178116 224.854095,116.883141 225.025970,115.745590 
	C225.730698,111.081306 223.695862,109.970184 219.191879,109.821495 
	C213.953369,109.648544 212.227982,111.448387 212.970413,116.371765 
	C213.141495,117.506386 213.239075,118.812401 212.833679,119.824509 
	C212.490128,120.682152 211.389496,121.741913 210.590302,121.770409 
	C209.781555,121.799240 208.213882,120.677437 208.208679,120.049477 
	C208.144043,112.248566 208.280487,104.445236 208.465683,96.644905 
	C208.476562,96.186424 209.346558,95.748344 210.228729,95.217255 
z"/>
<path fill="#0A1A2F" opacity="1.000000" stroke="none" 
	d="
M382.849182,115.001877 
	C379.168732,114.675560 376.695679,115.196480 375.652222,119.064438 
	C375.273468,120.468399 373.028168,121.368828 371.634521,122.499008 
	C371.082489,122.075928 370.530457,121.652840 369.978394,121.229759 
	C373.017181,112.955544 375.895844,104.616814 379.188110,96.444740 
	C380.233765,93.849243 383.988495,94.516975 385.223541,97.670311 
	C388.231506,105.350128 390.919403,113.155327 393.793610,121.068222 
	C390.624176,122.906128 389.389709,121.487221 387.963043,118.904282 
	C387.047241,117.246231 384.879761,116.279541 382.849182,115.001877 
M383.759857,110.777412 
	C383.451324,108.106201 383.142822,105.434990 382.681244,101.438560 
	C378.061401,109.576096 378.178223,110.359261 383.759857,110.777412 
z"/>
<path fill="#0A1A2F" opacity="1.000000" stroke="none" 
	d="
M563.462097,71.867401 
	C562.999634,71.442406 562.999817,71.086548 563.000000,70.465698 
	C563.995178,68.885796 565.765930,67.617912 565.849060,66.247681 
	C566.180176,60.786121 566.155884,55.284348 565.887329,49.815922 
	C565.801025,48.058849 564.556641,46.358635 563.734192,44.371613 
	C567.174194,44.041927 570.560181,43.717430 574.257629,43.363075 
	C576.982605,52.474930 572.147034,62.630867 577.592102,71.936523 
	C573.306641,71.936523 568.615723,71.936523 563.462097,71.867401 
z"/>
<path fill="#091B2D" opacity="1.000000" stroke="none" 
	d="
M202.412567,107.091141 
	C200.208633,111.368843 197.027634,113.390617 192.565735,112.977844 
	C189.158203,112.662590 187.810944,113.909668 187.861847,117.453514 
	C187.883041,118.930824 186.361023,120.430298 185.540710,121.919708 
	C184.700134,120.447189 183.208740,119.006729 183.134369,117.496483 
	C182.849304,111.707634 183.177124,105.890587 182.964722,100.095490 
	C182.819351,96.129158 184.496002,94.629364 188.284042,94.987015 
	C190.418427,95.188530 192.614120,95.029526 194.694778,95.457687 
	C201.248062,96.806259 203.302887,99.862061 202.412567,107.091141 
M195.425644,99.776062 
	C194.639130,99.533859 193.867981,99.200203 193.063492,99.064995 
	C189.203888,98.416328 187.833694,99.923637 187.870941,103.954292 
	C187.906784,107.833275 188.983948,109.423790 192.985001,109.033012 
	C198.105316,108.532913 199.284882,105.414963 195.425644,99.776062 
z"/>
<path fill="#091A2E" opacity="1.000000" stroke="none" 
	d="
M414.018188,96.708580 
	C418.005493,99.952766 419.591431,104.235573 417.121948,107.966232 
	C415.446869,110.496727 411.416931,112.296074 408.200439,112.759743 
	C404.546082,113.286522 403.918793,114.646431 403.853516,117.793350 
	C403.824799,119.179703 402.422485,120.537575 401.643829,121.908386 
	C400.762848,120.474075 399.189941,119.071945 399.121521,117.599854 
	C398.835724,111.453102 399.095276,105.283318 398.961731,99.126167 
	C398.898254,96.199638 399.840881,94.620293 402.947998,95.011620 
	C406.534698,95.463341 410.112366,95.986679 414.018188,96.708580 
M409.898804,108.816803 
	C413.457489,107.282730 414.006439,104.100113 412.279205,101.535629 
	C411.235992,99.986763 408.047089,99.883102 405.822327,99.130081 
	C405.216431,101.458870 404.229187,103.765450 404.092010,106.121513 
	C403.874023,109.866844 406.931793,108.802299 409.898804,108.816803 
z"/>
<path fill="#0A192F" opacity="1.000000" stroke="none" 
	d="
M463.392120,121.215843 
	C461.763123,120.906082 459.180267,120.106949 459.240082,119.666908 
	C460.436981,110.858383 454.961365,104.680275 451.011230,97.899452 
	C450.693481,97.354019 450.565063,96.698303 450.347290,96.090080 
	C453.985107,94.823143 453.985107,94.823143 461.281036,105.495781 
	C466.077301,103.450653 465.317017,95.008331 473.548401,95.160141 
	C469.709686,104.101250 462.094360,110.933495 463.392120,121.215843 
z"/>
<path fill="#091B2D" opacity="1.000000" stroke="none" 
	d="
M274.071167,121.882294 
	C273.097137,120.427353 272.141907,119.032669 272.075897,117.597092 
	C271.869537,113.110344 271.791565,108.595657 272.061493,104.115753 
	C272.292572,100.280014 271.125885,98.452965 267.047241,98.948730 
	C265.859680,99.093079 264.595856,98.610168 263.367004,98.414787 
	C263.225189,97.844742 263.083374,97.274704 262.941528,96.704666 
	C264.614441,96.136002 266.336426,94.973015 267.951355,95.106339 
	C273.559784,95.569328 279.667694,93.331665 285.384918,96.918633 
	C284.423706,98.092567 284.254791,98.515297 284.014801,98.560486 
	C276.983948,99.884483 276.983612,99.878479 276.982117,107.445244 
	C276.981384,111.108803 277.180817,114.790306 276.860748,118.425926 
	C276.752808,119.651764 275.322662,120.761200 274.071167,121.882294 
z"/>
<path fill="#0A192F" opacity="1.000000" stroke="none" 
	d="
M575.187134,31.860104 
	C576.213867,37.224842 572.949951,40.413731 568.531433,38.496849 
	C566.999573,37.832275 565.180359,35.365742 565.347046,33.938931 
	C565.515747,32.494907 567.810303,30.637512 569.486572,30.221289 
	C571.096252,29.821590 573.106995,31.036898 575.187134,31.860104 
z"/>
<path fill="#F5F6F7" opacity="1.000000" stroke="none" 
	d="
M106.120247,59.868172 
	C114.818291,60.005119 123.566658,59.630733 132.194595,60.479992 
	C137.001938,60.953186 140.505066,64.522873 141.207993,69.845757 
	C141.908829,75.152756 139.437683,80.565300 134.401459,82.543747 
	C130.051605,84.252571 125.248177,84.806793 120.507072,85.903389 
	C119.154472,97.389725 119.523918,98.410439 127.129639,101.645569 
	C119.620300,101.645569 112.968575,101.645569 105.112587,101.645569 
	C111.125175,100.169128 110.051392,96.097549 110.065552,92.516525 
	C110.100395,83.705215 110.250099,74.887360 109.929031,66.087616 
	C109.865402,64.343773 107.903954,62.669163 106.502518,60.691376 
	C106.266785,60.223763 106.244415,60.039780 106.120247,59.868172 
M120.110710,74.413300 
	C120.110710,77.306084 120.110710,80.198868 120.110710,84.695618 
	C123.775673,82.951965 126.815186,82.309746 128.628174,80.463264 
	C131.685883,77.349075 131.773468,66.714394 128.806305,63.547779 
	C127.388458,62.034626 124.593582,61.500366 122.349335,61.285252 
	C121.765915,61.229328 120.491264,63.979988 120.269836,65.545609 
	C119.902847,68.140572 120.132446,70.819908 120.110710,74.413300 
z"/>
<path fill="#F1F2F3" opacity="1.000000" stroke="none" 
	d="
M33.674904,61.169083 
	C24.793354,59.705315 21.037064,61.952660 18.783224,70.651497 
	C16.785479,78.361908 16.747137,86.149521 19.704565,93.670425 
	C22.396217,100.515457 26.916351,102.410187 34.613060,100.086067 
	C35.500439,100.293022 35.745014,100.502686 35.945827,100.763390 
	C24.705923,106.767731 10.451079,100.970497 7.143332,88.784706 
	C4.750348,79.968918 5.615013,71.461128 12.330846,64.645782 
	C18.457266,58.428577 26.025906,57.100758 34.459465,60.143440 
	C34.298756,60.767891 33.986832,60.968487 33.674904,61.169083 
z"/>
<path fill="#F3F4F5" opacity="1.000000" stroke="none" 
	d="
M70.799133,89.981087 
	C69.526817,93.922371 68.254501,97.863663 67.045547,101.608673 
	C63.419922,102.821388 61.705135,101.766907 60.549061,98.307800 
	C57.015526,87.735023 53.166153,77.265488 49.289913,66.811302 
	C48.407524,64.431503 46.921944,62.275356 45.573299,59.753143 
	C50.562359,59.753143 55.953392,59.753143 60.627110,59.753143 
	C60.627110,62.215343 60.081238,64.711517 60.727280,66.847122 
	C62.845524,73.849350 65.396912,80.720558 67.968887,88.296463 
	C69.037025,89.294235 69.918083,89.637657 70.799133,89.981087 
z"/>
<path fill="#F2F3F4" opacity="1.000000" stroke="none" 
	d="
M93.216118,86.955292 
	C91.787605,91.804092 90.359093,96.652885 88.855652,101.756027 
	C87.252106,101.756027 85.662704,101.756027 83.792908,101.756027 
	C81.269043,94.123825 78.713432,86.395607 75.916794,77.914215 
	C74.869438,77.053040 74.063103,76.945030 73.256767,76.837036 
	C74.994476,70.271965 72.005981,65.117355 68.266449,59.714512 
	C73.995049,59.714512 79.714119,59.714512 85.433197,59.714512 
	C80.551537,60.749321 81.730400,63.772339 82.774231,66.906326 
	C84.976013,73.516960 87.034149,80.175507 89.254158,86.779800 
	C89.381500,87.158661 90.430779,87.227600 91.681007,87.133736 
	C92.612724,86.869560 92.914421,86.912422 93.216118,86.955292 
z"/>
<path fill="#D7D9DD" opacity="1.000000" stroke="none" 
	d="
M105.642319,59.822617 
	C106.244415,60.039780 106.266785,60.223763 106.121231,60.547989 
	C101.515190,62.327354 100.509560,63.698025 96.814476,74.060265 
	C95.387009,68.559258 100.393982,61.596489 91.405037,60.642944 
	C91.639961,60.137966 91.874878,59.632988 92.109795,59.128010 
	C96.461327,59.344357 100.812851,59.560707 105.642319,59.822617 
z"/>
<path fill="#D9DCDF" opacity="1.000000" stroke="none" 
	d="
M33.879372,61.451149 
	C33.986832,60.968487 34.298756,60.767891 34.777885,60.344639 
	C36.411171,60.859352 37.877258,61.596722 39.733139,62.530136 
	C40.376675,61.544662 41.094299,60.445724 42.501762,58.290401 
	C42.501762,64.273811 42.501762,69.073586 42.501762,73.711952 
	C39.630054,69.625496 36.856949,65.679352 33.879372,61.451149 
z"/>
<path fill="#DBDDE0" opacity="1.000000" stroke="none" 
	d="
M36.282299,100.681816 
	C35.745014,100.502686 35.500439,100.293022 35.002388,100.011429 
	C37.284752,95.683739 39.776825,91.479027 42.325344,87.179085 
	C42.325344,91.767456 42.325344,96.731194 42.325344,100.600243 
	C40.508648,100.600243 38.563709,100.600243 36.282299,100.681816 
z"/>
<path fill="#BABEC4" opacity="1.000000" stroke="none" 
	d="
M73.061996,77.092422 
	C74.063103,76.945030 74.869438,77.053040 75.856644,77.527374 
	C74.428810,81.726723 72.820107,85.559746 71.005264,89.686920 
	C69.918083,89.637657 69.037025,89.294235 68.027054,88.692093 
	C69.554504,84.738197 71.210869,81.043007 73.061996,77.092422 
z"/>
<path fill="#D7D9DD" opacity="1.000000" stroke="none" 
	d="
M96.629372,76.545074 
	C95.669464,79.713356 94.780823,82.370171 93.892174,85.026985 
	C93.262848,84.825256 92.633514,84.623535 92.004189,84.421814 
	C93.041405,81.409447 94.078621,78.397087 95.115837,75.384720 
	C95.644104,75.601021 96.172363,75.817314 96.629372,76.545074 
z"/>
<path fill="#D7D9DD" opacity="1.000000" stroke="none" 
	d="
M93.484863,86.501862 
	C92.914421,86.912422 92.612724,86.869560 91.859863,86.753334 
	C91.856552,85.931816 92.304398,85.183670 92.752243,84.435516 
	C93.086029,84.973160 93.419823,85.510796 93.484863,86.501862 
z"/>
<path fill="#D7D9DD" opacity="1.000000" stroke="none" 
	d="
M96.250000,73.250000 
	C96.533333,73.300003 96.566666,73.599998 96.599998,73.900002 
	C96.400002,73.766663 96.199997,73.633331 96.250000,73.250000 
z"/>
<path fill="#000000" opacity="1.000000" stroke="none" 
	d="
M618.991455,72.008400 
	C621.806824,72.019142 624.705444,71.637779 627.426453,72.168007 
	C629.044250,72.483269 631.326599,74.056404 631.575989,75.388588 
	C631.816589,76.674072 630.082642,78.680611 628.739502,79.797150 
	C627.709717,80.653252 625.953308,80.842743 624.494446,80.938553 
	C618.757690,81.315323 616.694641,78.197411 618.969360,72.336716 
	C619.017944,71.982971 619.000061,71.999779 618.991455,72.008400 
z"/>
<path fill="#000000" opacity="1.000000" stroke="none" 
	d="
M622.001099,52.801720 
	C622.693726,50.072483 623.386841,47.778500 624.079956,45.484512 
	C624.724182,47.832043 625.662537,50.147774 625.920898,52.537022 
	C626.132751,54.496620 625.535706,56.543697 625.297241,58.552002 
	C624.676636,58.625988 624.056030,58.699974 623.435486,58.773964 
	C622.957520,56.928299 622.479614,55.082638 622.001099,52.801720 
z"/>
<path fill="#000000" opacity="1.000000" stroke="none" 
	d="
M635.990356,50.005684 
	C635.866455,49.616032 635.758728,49.213955 635.651062,48.811871 
	C635.774353,49.051872 635.897644,49.291882 636.028564,49.748222 
	C636.036194,49.964554 636.006531,49.993256 635.990356,50.005684 
z"/>
<path fill="#000000" opacity="1.000000" stroke="none" 
	d="
M362.284302,59.268639 
	C363.362701,59.515678 364.892639,60.070576 364.855255,60.483620 
	C364.642639,62.832848 364.146118,65.175606 363.460968,67.434059 
	C363.390015,67.667870 360.620178,67.587341 360.503998,67.215187 
	C360.015472,65.650261 359.779633,63.878914 360.011780,62.263683 
	C360.154480,61.270798 361.310822,60.423599 362.284302,59.268639 
z"/>
<path fill="#000000" opacity="1.000000" stroke="none" 
	d="
M544.444580,69.564087 
	C540.427612,64.829536 539.581116,52.235252 542.889587,47.861458 
	C543.742859,46.733425 545.482727,46.275982 546.815308,45.510506 
	C547.541687,46.832558 548.829163,48.127434 548.894775,49.481491 
	C549.142639,54.599575 549.026001,59.737164 548.980530,64.866867 
	C548.956116,67.614212 548.162537,69.811211 544.444580,69.564087 
z"/>
<path fill="#000000" opacity="1.000000" stroke="none" 
	d="
M508.850922,54.734894 
	C508.932678,54.155079 508.935913,53.988876 508.957306,53.825043 
	C509.420654,50.273975 509.222595,45.308914 514.003174,45.656620 
	C518.523743,45.985416 516.759705,50.852901 516.945190,53.897655 
	C517.166138,57.524616 517.415771,61.255035 516.784729,64.785431 
	C516.456482,66.621925 514.259888,68.124474 512.907227,69.777863 
	C511.617310,68.142403 509.598236,66.665535 509.200256,64.836037 
	C508.523285,61.724087 508.866394,58.390224 508.850922,54.734894 
z"/>
<path fill="#000000" opacity="1.000000" stroke="none" 
	d="
M230.278717,64.279694 
	C230.599701,58.614632 230.886261,53.347004 231.605392,48.139111 
	C231.756027,47.048363 233.500488,46.177704 234.510468,45.205620 
	C235.345428,46.157520 236.543839,46.974705 236.954926,48.083729 
	C239.204041,54.151417 238.859955,60.408764 237.525665,66.573776 
	C237.189285,68.128021 235.535156,69.397057 234.486588,70.797165 
	C233.303909,69.402756 232.066528,68.049500 230.968933,66.591057 
	C230.597015,66.096870 230.578278,65.336884 230.278717,64.279694 
z"/>
<path fill="#000000" opacity="1.000000" stroke="none" 
	d="
M484.993896,53.980026 
	C483.475433,53.512707 481.360443,52.752804 481.403442,52.600018 
	C482.123016,50.042336 483.112122,47.560490 484.161041,44.739773 
	C489.023193,49.033382 489.168213,51.709309 484.993896,53.980026 
z"/>
<path fill="#000000" opacity="1.000000" stroke="none" 
	d="
M360.217346,100.909340 
	C361.123169,104.012611 362.172913,107.186951 358.000580,107.813965 
	C356.184143,108.086952 353.015808,107.500183 352.490723,106.365105 
	C351.656921,104.562752 352.525085,101.973045 352.673279,99.716400 
	C355.104553,100.003235 357.535828,100.290070 360.217346,100.909340 
z"/>
<path fill="#000000" opacity="1.000000" stroke="none" 
	d="
M302.859497,118.039513 
	C301.890686,118.425896 301.270325,118.838287 300.645386,118.845314 
	C296.031433,118.897163 293.180939,115.678108 292.994873,110.302628 
	C292.750732,103.248787 295.170868,99.380386 300.036102,99.047829 
	C304.050598,98.773415 307.483246,102.111473 307.921997,107.081764 
	C308.307770,111.452126 307.250763,115.361069 302.859497,118.039513 
z"/>
<path fill="#000000" opacity="1.000000" stroke="none" 
	d="
M254.957169,104.365761 
	C255.092606,107.482140 256.054413,110.731277 254.906921,112.823647 
	C253.513351,115.364708 250.568375,118.104958 247.881119,118.625870 
	C244.369553,119.306557 241.557953,116.205772 241.237350,112.609467 
	C240.944702,109.326851 241.047272,105.533119 242.439362,102.678429 
	C245.079102,97.265266 250.327881,98.010513 254.957169,104.365761 
z"/>
<path fill="#000000" opacity="1.000000" stroke="none" 
	d="
M383.395111,110.857620 
	C378.178223,110.359261 378.061401,109.576096 382.681244,101.438560 
	C383.142822,105.434990 383.451324,108.106201 383.395111,110.857620 
z"/>
<path fill="#000000" opacity="1.000000" stroke="none" 
	d="
M195.776443,99.985107 
	C199.284882,105.414963 198.105316,108.532913 192.985001,109.033012 
	C188.983948,109.423790 187.906784,107.833275 187.870941,103.954292 
	C187.833694,99.923637 189.203888,98.416328 193.063492,99.064995 
	C193.867981,99.200203 194.639130,99.533859 195.776443,99.985107 
z"/>
<path fill="#000000" opacity="1.000000" stroke="none" 
	d="
M409.482178,108.881851 
	C406.931793,108.802299 403.874023,109.866844 404.092010,106.121513 
	C404.229187,103.765450 405.216431,101.458870 405.822327,99.130074 
	C408.047089,99.883102 411.235992,99.986763 412.279205,101.535629 
	C414.006439,104.100113 413.457489,107.282730 409.482178,108.881851 
z"/>
<path fill="#16263A" opacity="1.000000" stroke="none" 
	d="
M120.110718,73.938499 
	C120.132446,70.819908 119.902847,68.140572 120.269836,65.545609 
	C120.491264,63.979988 121.765915,61.229328 122.349335,61.285252 
	C124.593582,61.500366 127.388458,62.034626 128.806305,63.547779 
	C131.773468,66.714394 131.685883,77.349075 128.628174,80.463264 
	C126.815186,82.309746 123.775673,82.951965 120.110710,84.695618 
	C120.110710,80.198868 120.110710,77.306084 120.110718,73.938499 
z"/>
</svg>